<svg width="200" height="200" viewBox="0 0 200 200" fill="none" xmlns="http://www.w3.org/2000/svg">
<rect width="200" height="200" rx="100" fill="#311073"/>
<path d="M64 146V52.9091H104.182C111.091 52.9091 117.136 54.2727 122.318 57C127.5 59.7273 131.53 63.5606 134.409 68.5C137.288 73.4394 138.727 79.2121 138.727 85.8182C138.727 92.4848 137.242 98.2576 134.273 103.136C131.333 108.015 127.197 111.773 121.864 114.409C116.561 117.045 110.364 118.364 103.273 118.364H79.2727V98.7273H98.1818C101.152 98.7273 103.682 98.2121 105.773 97.1818C107.894 96.1212 109.515 94.6212 110.636 92.6818C111.788 90.7424 112.364 88.4545 112.364 85.8182C112.364 83.1515 111.788 80.8788 110.636 79C109.515 77.0909 107.894 75.6364 105.773 74.6364C103.682 73.6061 101.152 73.0909 98.1818 73.0909H89.2727V146H64Z" fill="white"/>
</svg>
